<?xml version="1.0" encoding="UTF-8"?>
<!-- Created with Inkscape (http://www.inkscape.org/) -->
<svg width="7.877mm" height="8.4667mm" version="1.1" viewBox="0 0 7.877 8.4667" xmlns="http://www.w3.org/2000/svg" xmlns:cc="http://creativecommons.org/ns#" xmlns:dc="http://purl.org/dc/elements/1.1/" xmlns:rdf="http://www.w3.org/1999/02/22-rdf-syntax-ns#">
 <metadata>
  <rdf:RDF>
   <cc:Work rdf:about="">
    <dc:format>image/svg+xml</dc:format>
    <dc:type rdf:resource="http://purl.org/dc/dcmitype/StillImage"/>
    <dc:title/>
   </cc:Work>
  </rdf:RDF>
 </metadata>
 <g transform="translate(1.0376 -277.28)">
  <g transform="matrix(.03459 0 0 .03459 -.9569 275.82)">
   <g transform="translate(10.536 48.064)">
    <g transform="translate(318.82 178.04)">
     <path d="m-191.12 38.915c-1.6544-0.0061-5.3297 0.2139-5.3297 0.2139l-0.0174 3.2396-0.10284 2.3053-3.6013 3.7362c-3.9085 4.0543-5.6488 6.6808-4.9134 7.4161 0.62312 0.62312 2.5162-0.12621 5.6214-2.2247 1.4001-0.9462 3.3979-2.1859 3.3979-2.1859s0.31178 0.89876 0.43026 1.4361c0.49133 2.2284 1.3123 4.9052 1.7833 5.8162 0.33597 0.64968 0.7838 0.97462 1.3426 0.97462 2.6287-1.138 2.4547-8.2084 2.4547-8.2084s9.1648 4.3091 9.3885 2.3059c0-0.86746-4.0304-4.6051-6.7216-6.2332-3.6574-2.2127-3.861-2.473-3.867-4.9475-6e-3 -2.2818 0.13449-3.6442 0.13449-3.6442z" fill="#f79a16" stroke-width=".35278"/>
    </g>
    <g transform="matrix(-1 0 0 1 -116.83 178.04)">
     <path d="m-191.12 38.915c-1.6544-0.0061-5.3297 0.2139-5.3297 0.2139l-0.0174 3.2396-0.10284 2.3053-3.6013 3.7362c-3.9085 4.0543-5.6488 6.6808-4.9134 7.4161 0.62312 0.62312 2.5162-0.12621 5.6214-2.2247 1.4001-0.9462 3.3979-2.1859 3.3979-2.1859s0.31178 0.89876 0.43026 1.4361c0.49133 2.2284 1.3123 4.9052 1.7833 5.8162 0.33597 0.64968 0.7838 0.97462 1.3426 0.97462 2.6287-1.138 2.4547-8.2084 2.4547-8.2084s9.1648 4.3091 9.3885 2.3059c0-0.86746-4.0304-4.6051-6.7216-6.2332-3.6574-2.2127-3.861-2.473-3.867-4.9475-6e-3 -2.2818 0.13449-3.6442 0.13449-3.6442z" fill="#f79a16" stroke-width=".35278"/>
    </g>
   </g>
   <path d="m110.82 43.764c-26.362 1.59e-4 -50.62 5.0983-63.252 13.293-5.1933-3.6617-14.121-5.7036-20.343-6.72-16.041-1.6212-14.272 0.75885-12.906 14.493 0.44432 4.4662 5.5196 25.316 5.6762 28.532 0.19214 3.9481 0.03339 6.8968-0.49559 12.363-0.52901 5.4663-1.2678 7.9155-3.3838 17.085-4.6173 15.826-5.8086 29.617-7.0683 46.634-0.076597 1.2763-0.70419 8.0688-0.73226 10.533 2.117e-4 48.922 46.213 88.581 103.22 88.581 27.375-7e-5 53.629-9.3327 72.987-25.945 19.357-16.612 30.232-39.143 30.232-62.636-0.0427-3.7163-0.35782-7.4266-0.94361-11.109-0.13697-13.084-3.6206-32.072-6.857-46.058-2.116-9.1693-2.8548-11.618-3.3838-17.085-0.52901-5.4663-0.68774-8.4149-0.49559-12.363 0.15655-3.2165 5.2318-24.066 5.6762-28.532 1.3663-13.734 3.1352-16.114-12.906-14.493-6.5056 1.0627-15.969 3.2462-21.029 7.23-12.37-8.4757-37.056-13.8-63.995-13.803z" fill="#764c24" style="paint-order:normal"/>
   <g transform="translate(11.063 43.969)" fill="#c69c6c">
    <circle cx="58.725" cy="73.072" r="45.818" style="paint-order:normal"/>
    <circle cx="142.62" cy="73.072" r="45.818" style="paint-order:normal"/>
   </g>
   <g transform="translate(-339.23 98.177)">
    <path d="m449.88 73.961c-0.41244-2.7e-4 -0.82474 3e-3 -1.2371 0.0103l0.0372 0.0589c-0.25047 0.011-0.50104 0.0204-0.75138 0.0341-6.9884 0.38305-13.924 1.8407-20.443 4.3873-12.65 4.9414-23.717 14.178-30.151 26.137-4.4612 8.293-6.6543 17.748-6.628 27.164 6e-3 2.1239 0.12306 4.2516 0.46715 6.3474 0.52354 3.1888 1.5751 6.2888 3.0804 9.1483 1.7018 3.2327 3.9843 6.1584 6.706 8.5953l0.0103-0.016c7.8114 7.1604 27.663 11.903 49.84 11.907 23.492-3e-3 44.206-5.3128 50.992-13.072 2.1769-2.1808 4.0272-4.6878 5.4627-7.4145 1.5053-2.8595 2.5569-5.9594 3.0804-9.1483 0.3441-2.0958 0.4607-4.2236 0.46664-6.3474 0.0263-9.4167-2.1664-18.871-6.6275-27.164-6.4338-11.96-17.502-21.196-30.152-26.137-6.5192-2.5466-13.454-4.0043-20.443-4.3873-0.25033-0.0137-0.50091-0.0231-0.75137-0.0341l0.0372-0.0589c-0.70558-0.012-1.4116-0.0112-2.1172-2e-3 -0.29303-4e-3 -0.58596-9e-3 -0.87901-9e-3z" fill="#c69c6c" style="paint-order:normal"/>
    <g transform="translate(349.53 -50.748)" fill="none" stroke="#754922" stroke-linecap="round">
     <g stroke-width="3.175">
      <path d="m77.462 169.13a10.096 7.4294 0 0 1-5.0478 6.4341 10.096 7.4294 0 0 1-10.096 0 10.096 7.4294 0 0 1-5.0478-6.4341" style="paint-order:normal"/>
      <path d="m111.33 169.13a10.096 7.4294 0 0 1-5.0478 6.4341 10.096 7.4294 0 0 1-10.096 0 10.096 7.4294 0 0 1-5.0478-6.4341" style="paint-order:normal"/>
      <path d="m145.19 169.13a10.096 7.4294 0 0 1-5.0478 6.4341 10.096 7.4294 0 0 1-10.096 0 10.096 7.4294 0 0 1-5.0478-6.4341" style="paint-order:normal"/>
     </g>
     <g transform="translate(-.073612)" stroke-width="2.1167">
      <path d="m95.527 190.43a10.096 7.4294 0 0 1-5.0478 6.4341 10.096 7.4294 0 0 1-10.096 0 10.096 7.4294 0 0 1-5.0478-6.4341" style="paint-order:normal"/>
      <path d="m127.28 190.43a10.096 7.4294 0 0 1-5.0478 6.4341 10.096 7.4294 0 0 1-10.096 0 10.096 7.4294 0 0 1-5.0478-6.4341" style="paint-order:normal"/>
     </g>
    </g>
   </g>
   <g transform="translate(0 -4.7625)">
    <circle cx="159.09" cy="120.58" r="33.851" fill="#fff" stroke="#e3e0e2" stroke-linecap="round" stroke-width="1.3041" style="paint-order:normal"/>
    <g transform="translate(9.9229 45.103)">
     <circle cx="144.05" cy="75.482" r="19.604" style="paint-order:normal"/>
     <circle cx="134.15" cy="70.246" r="4.8278" fill="#fff" style="paint-order:normal"/>
    </g>
    <circle cx="64.374" cy="120.58" r="33.851" fill="#fff" stroke="#e3e0e2" stroke-linecap="round" stroke-width="1.3041" style="paint-order:normal"/>
    <g transform="translate(-74.215 45.103)">
     <circle cx="144.05" cy="75.482" r="19.604" style="paint-order:normal"/>
     <circle cx="134.15" cy="70.246" r="4.8278" fill="#fff" style="paint-order:normal"/>
    </g>
    <path d="m111.12 130.83a12.058 8.7861 0 0 0-10.443 4.393l10.443 22.301 10.442-22.301a12.058 8.7861 0 0 0-10.442-4.393z" fill="#eaa91a" style="paint-order:normal"/>
   </g>
   <g transform="translate(-339.23 98.177)">
    <g transform="matrix(-1 0 0 1 901.52 0)">
     <path d="m555.38 138.94c3.0921-2.9245 5.7316-11.264 7.1148-22.479 1.7384-18.481 0.76723-38.358-3.1467-54.479-1.1987-4.0581-4.9721-15.915-8.5511-17.169-6.574-2.1696-22.732 14.472-34.959 36.006-5.4495 11.168-12.368 23.94-12.545 35.101-0.0647 5.1988 0.98269 6.7608 4.3068 6.423 4.0896-0.4156 6.192-1.6316 11.49-6.6454 1.8058-1.709 3.3598-3.0308 3.4533-2.9373 0.0935 0.0935 0.0948 2.1222 3e-3 4.5081-0.27225 7.0674 0.92093 14.497 2.6944 16.778 0.96574 1.242 3.7949 1.4595 5.4753 0.42099 2.6497-1.6376 5.8295-5.9225 9.4445-12.727 1.1077-2.085 1.7456-2.0367 2.3305 0.17638 3.1745 12.012 6.6594 18.168 10.284 18.168 1.0887 0 1.6593-0.251 2.6061-1.1465z" fill="#402009" stroke-width=".35278"/>
     <g fill="#65320e" fill-rule="evenodd" stroke-width=".039418">
      <path d="m556.14 64.679 0.6298 9.2561 0.91298-0.37086 0.88083 7.331 0.1478-8.5389-1.0434 0.42382z"/>
      <path d="m559.23 81.626-0.52028 9.2629 0.95186-0.25505-0.033 7.3837 1.2032-8.455-1.0878 0.29147z"/>
      <path d="m550.19 83.116-2.0853 9.0401 0.98134-0.08975-1.2861 7.2709 2.6212-8.128-1.1215 0.10256z"/>
      <path d="m536.38 80.444-4.3821 8.1773 0.97056 0.17063-3.147 6.6795 4.6601-7.1567-1.1092-0.195z"/>
      <path d="m520.87 83.917-4.7426 7.9736 0.96198 0.21377-3.442 6.5324 4.9748-6.9416-1.0993-0.2443z"/>
      <path d="m513.06 101.35-4.2661 8.2384 0.97287 0.15689-3.0523 6.7233 4.5585-7.2218-1.1118-0.17931z"/>
      <path d="m529.89 96.058-4.5532 8.0833 0.96675 0.19101-3.2869 6.6118 4.8097-7.057-1.1048-0.2183z"/>
      <path d="m547.91 101.79-3.2075 8.7054 0.98483 0.0346-2.1918 7.051 3.6242-7.7331-1.1255-0.0395z"/>
      <path d="m560.38 99.704-1.9089 9.079 0.97941-0.10885-1.1442 7.2946 2.4624-8.1775-1.1193 0.12438z"/>
      <path d="m550.03 65.715-0.69821 9.2512 0.95659-0.23672-0.1749 7.3817 1.3654-8.4303-1.0932 0.27051z"/>
      <path d="m543 63.49-3.9765 8.3821 0.97775 0.1229-2.8162 6.8256 4.3041-7.3763-1.1174-0.14047z"/>
      <path d="m531.81 67.433-5.6954 7.3235 0.92802 0.33148-4.2259 6.0548 5.7977-6.2707-1.0605-0.37882z"/>
      <path d="m550.03 49.025 2.5801 8.9115 0.81347-0.5562 2.4168 6.977-1.668-8.3757-0.92964 0.63562z"/>
      <path d="m543.58 50.492-5.6093 7.3897 0.93184 0.3206-4.1548 6.1039 5.7239-6.3381-1.0649-0.36639z"/>
      <path d="m558.52 117.67-2.4666 8.9436 0.98426-0.0481-1.593 7.2098 2.9632-8.0096-1.1248 0.055z"/>
      <path d="m546.96 49.793-0.69821 9.2512 0.95659-0.23672-0.1749 7.3817 1.3654-8.4303-1.0932 0.27051z"/>
      <path d="m544.36 81.584-4.3821 8.1773 0.97056 0.17063-3.147 6.6795 4.6601-7.1567-1.1092-0.195z"/>
      <path d="m537.38 99.758-4.2244 8.2599 0.97366 0.15197-3.0183 6.7387 4.5219-7.2448-1.1127-0.17368z"/>
      <path d="m530.36 115.96-3.1994 8.7083 0.98488 0.0337-2.1852 7.053 3.617-7.7364-1.1255-0.0385z"/>
      <path d="m529.54 81.394-4.3821 8.1773 0.97056 0.17063-3.147 6.6795 4.6601-7.1567-1.1092-0.195z"/>
      <path d="m521.37 99.44-4.3821 8.1773 0.97056 0.17063-3.147 6.6795 4.6601-7.1567-1.1092-0.195z"/>
      <path d="m542.5 102.04-4.2244 8.2599 0.97366 0.15197-3.0183 6.7387 4.5219-7.2448-1.1127-0.17368z"/>
      <path d="m535.86 117.42-4.2244 8.2599 0.97366 0.15197-3.0183 6.7387 4.5219-7.2448-1.1127-0.17368z"/>
      <path d="m553.99 100.26-2.1576 9.0231 0.98203-0.0819-1.3442 7.2604 2.6861-8.1068-1.1223 0.0936z"/>
      <path d="m550.54 118.21-1.0663 9.216 0.96526-0.19839-0.46894 7.3688 1.7003-8.3692-1.1031 0.22676z"/>
      <path d="m555.49 81.432-1.6534 9.1289 0.97597-0.13628-0.93914 7.3238 2.232-8.2434-1.1153 0.15574z"/>
     </g>
    </g>
    <path d="m555.38 138.94c3.0921-2.9245 5.7316-11.264 7.1148-22.479 1.7384-18.481 0.76723-38.358-3.1467-54.479-1.1987-4.0581-4.9721-15.915-8.5511-17.169-6.574-2.1696-22.732 14.472-34.959 36.006-5.4495 11.168-12.368 23.94-12.545 35.101-0.0647 5.1988 0.98269 6.7608 4.3068 6.423 4.0896-0.4156 6.192-1.6316 11.49-6.6454 1.8058-1.709 3.3598-3.0308 3.4533-2.9373 0.0935 0.0935 0.0948 2.1222 3e-3 4.5081-0.27225 7.0674 0.92093 14.497 2.6944 16.778 0.96574 1.242 3.7949 1.4595 5.4753 0.42099 2.6497-1.6376 5.8295-5.9225 9.4445-12.727 1.1077-2.085 1.7456-2.0367 2.3305 0.17638 3.1745 12.012 6.6594 18.168 10.284 18.168 1.0887 0 1.6593-0.251 2.6061-1.1465z" fill="#402009" stroke-width=".35278"/>
    <g fill="#65320e" fill-rule="evenodd" stroke-width=".039418">
     <path d="m556.14 64.679 0.6298 9.2561 0.91298-0.37086 0.88083 7.331 0.1478-8.5389-1.0434 0.42382z"/>
     <path d="m559.23 81.626-0.52028 9.2629 0.95186-0.25505-0.033 7.3837 1.2032-8.455-1.0878 0.29147z"/>
     <path d="m550.19 83.116-2.0853 9.0401 0.98134-0.08975-1.2861 7.2709 2.6212-8.128-1.1215 0.10256z"/>
     <path d="m536.38 80.444-4.3821 8.1773 0.97056 0.17063-3.147 6.6795 4.6601-7.1567-1.1092-0.195z"/>
     <path d="m520.87 83.917-4.7426 7.9736 0.96198 0.21377-3.442 6.5324 4.9748-6.9416-1.0993-0.2443z"/>
     <path d="m513.06 101.35-4.2661 8.2384 0.97287 0.15689-3.0523 6.7233 4.5585-7.2218-1.1118-0.17931z"/>
     <path d="m529.89 96.058-4.5532 8.0833 0.96675 0.19101-3.2869 6.6118 4.8097-7.057-1.1048-0.2183z"/>
     <path d="m547.91 101.79-3.2075 8.7054 0.98483 0.0346-2.1918 7.051 3.6242-7.7331-1.1255-0.0395z"/>
     <path d="m560.38 99.704-1.9089 9.079 0.97941-0.10885-1.1442 7.2946 2.4624-8.1775-1.1193 0.12438z"/>
     <path d="m550.03 65.715-0.69821 9.2512 0.95659-0.23672-0.1749 7.3817 1.3654-8.4303-1.0932 0.27051z"/>
     <path d="m543 63.49-3.9765 8.3821 0.97775 0.1229-2.8162 6.8256 4.3041-7.3763-1.1174-0.14047z"/>
     <path d="m531.81 67.433-5.6954 7.3235 0.92802 0.33148-4.2259 6.0548 5.7977-6.2707-1.0605-0.37882z"/>
     <path d="m550.03 49.025 2.5801 8.9115 0.81347-0.5562 2.4168 6.977-1.668-8.3757-0.92964 0.63562z"/>
     <path d="m543.58 50.492-5.6093 7.3897 0.93184 0.3206-4.1548 6.1039 5.7239-6.3381-1.0649-0.36639z"/>
     <path d="m558.52 117.67-2.4666 8.9436 0.98426-0.0481-1.593 7.2098 2.9632-8.0096-1.1248 0.055z"/>
     <path d="m546.96 49.793-0.69821 9.2512 0.95659-0.23672-0.1749 7.3817 1.3654-8.4303-1.0932 0.27051z"/>
     <path d="m544.36 81.584-4.3821 8.1773 0.97056 0.17063-3.147 6.6795 4.6601-7.1567-1.1092-0.195z"/>
     <path d="m537.38 99.758-4.2244 8.2599 0.97366 0.15197-3.0183 6.7387 4.5219-7.2448-1.1127-0.17368z"/>
     <path d="m530.36 115.96-3.1994 8.7083 0.98488 0.0337-2.1852 7.053 3.617-7.7364-1.1255-0.0385z"/>
     <path d="m529.54 81.394-4.3821 8.1773 0.97056 0.17063-3.147 6.6795 4.6601-7.1567-1.1092-0.195z"/>
     <path d="m521.37 99.44-4.3821 8.1773 0.97056 0.17063-3.147 6.6795 4.6601-7.1567-1.1092-0.195z"/>
     <path d="m542.5 102.04-4.2244 8.2599 0.97366 0.15197-3.0183 6.7387 4.5219-7.2448-1.1127-0.17368z"/>
     <path d="m535.86 117.42-4.2244 8.2599 0.97366 0.15197-3.0183 6.7387 4.5219-7.2448-1.1127-0.17368z"/>
     <path d="m553.99 100.26-2.1576 9.0231 0.98203-0.0819-1.3442 7.2604 2.6861-8.1068-1.1223 0.0936z"/>
     <path d="m550.54 118.21-1.0663 9.216 0.96526-0.19839-0.46894 7.3688 1.7003-8.3692-1.1031 0.22676z"/>
     <path d="m555.49 81.432-1.6534 9.1289 0.97597-0.13628-0.93914 7.3238 2.232-8.2434-1.1153 0.15574z"/>
    </g>
   </g>
  </g>
 </g>
</svg>
