<?xml version="1.0" encoding="UTF-8"?>
<svg width="32" height="32" version="1.1" viewBox="0 0 8.4667 8.4667" xmlns="http://www.w3.org/2000/svg" xmlns:cc="http://creativecommons.org/ns#" xmlns:dc="http://purl.org/dc/elements/1.1/" xmlns:rdf="http://www.w3.org/1999/02/22-rdf-syntax-ns#">
 <metadata>
  <rdf:RDF>
   <cc:Work rdf:about="">
    <dc:format>image/svg+xml</dc:format>
    <dc:type rdf:resource="http://purl.org/dc/dcmitype/StillImage"/>
    <dc:title/>
   </cc:Work>
  </rdf:RDF>
 </metadata>
 <g transform="matrix(.039807 0 0 .039807 -.46683 -1.7444)" stroke-width="9.6774">
  <g transform="rotate(180,52.319,150.08)">
   <path d="m36.035 46.969-109.54 99.219 55.298 24.606z" fill="#1c1c1c"/>
   <path d="m14.272 66.682-87.774 79.506 45.296 20.156z" fill="#313131"/>
   <path d="m14.272 66.682-87.774 79.506 34.16 15.2 44.395-73.075z" fill="#3c3c3c"/>
   <path d="m-35.001 111.31-38.501 34.874 29.945 13.325z" fill="#494949"/>
  </g>
  <g transform="translate(131.51 .17526)">
   <path d="m36.035 46.969-109.54 99.219 55.298 24.606z" fill="#e85723"/>
   <path d="m11.15 69.51-84.652 76.677 55.298 24.606z" fill="#ec7227"/>
   <path d="m26.51 55.596-100.01 90.591 39.175 17.432z" fill="#f19c2f"/>
   <path d="m7.9834 72.379-81.485 73.809 25.102 11.17z" fill="#f8c457"/>
  </g>
 </g>
</svg>
