<?xml version="1.0" encoding="UTF-8" standalone="no"?>
<svg
   xmlns:dc="http://purl.org/dc/elements/1.1/"
   xmlns:cc="http://creativecommons.org/ns#"
   xmlns:rdf="http://www.w3.org/1999/02/22-rdf-syntax-ns#"
   xmlns:svg="http://www.w3.org/2000/svg"
   xmlns="http://www.w3.org/2000/svg"
   xmlns:sodipodi="http://sodipodi.sourceforge.net/DTD/sodipodi-0.dtd"
   xmlns:inkscape="http://www.inkscape.org/namespaces/inkscape"
   width="65.372mm"
   height="21.167mm"
   version="1.1"
   viewBox="0 0 65.372 21.167"
   id="svg46"
   sodipodi:docname="protut.svg"
   inkscape:version="0.92.3 (2405546, 2018-03-11)">
  <defs
     id="defs50" />
  <sodipodi:namedview
     pagecolor="#ffffff"
     bordercolor="#666666"
     borderopacity="1"
     objecttolerance="10"
     gridtolerance="10"
     guidetolerance="10"
     inkscape:pageopacity="0"
     inkscape:pageshadow="2"
     inkscape:window-width="1366"
     inkscape:window-height="703"
     id="namedview48"
     showgrid="false"
     inkscape:zoom="1.6310818"
     inkscape:cx="123.53764"
     inkscape:cy="40.00063"
     inkscape:window-x="0"
     inkscape:window-y="0"
     inkscape:window-maximized="1"
     inkscape:current-layer="svg46" />
  <metadata
     id="metadata2">
    <rdf:RDF>
      <cc:Work
         rdf:about="">
        <dc:format>image/svg+xml</dc:format>
        <dc:type
           rdf:resource="http://purl.org/dc/dcmitype/StillImage" />
        <dc:title />
      </cc:Work>
    </rdf:RDF>
  </metadata>
  <g
     id="g942"
     transform="translate(-0.26458339)">
    <g
       transform="matrix(0.080498,0,0,0.080498,-3.2692494,-1.5046941)"
       style="stroke-width:3.773"
       id="g24">
      <g
         transform="rotate(180,52.319,150.08)"
         style="stroke-width:3.773"
         id="g12">
        <path
           d="m 36.035,46.969 -109.54,99.219 55.298,24.606 z"
           style="fill:#1c1c1c;stroke-width:3.773"
           id="path4"
           inkscape:connector-curvature="0" />
        <path
           d="m 14.272,66.682 -87.774,79.506 45.296,20.156 z"
           style="fill:#313131;stroke-width:3.773"
           id="path6"
           inkscape:connector-curvature="0" />
        <path
           d="m 14.272,66.682 -87.774,79.506 34.16,15.2 44.395,-73.075 z"
           style="fill:#3c3c3c;stroke-width:3.773"
           id="path8"
           inkscape:connector-curvature="0" />
        <path
           d="m -35.001,111.31 -38.501,34.874 29.945,13.325 z"
           style="fill:#494949;stroke-width:3.773"
           id="path10"
           inkscape:connector-curvature="0" />
      </g>
      <g
         transform="translate(131.51,0.17526)"
         style="stroke-width:3.773"
         id="g22">
        <path
           d="m 36.035,46.969 -109.54,99.219 55.298,24.606 z"
           style="fill:#e85723;stroke-width:3.773"
           id="path14"
           inkscape:connector-curvature="0" />
        <path
           d="m 11.15,69.51 -84.652,76.677 55.298,24.606 z"
           style="fill:#ec7227;stroke-width:3.773"
           id="path16"
           inkscape:connector-curvature="0" />
        <path
           d="m 26.51,55.596 -100.01,90.591 39.175,17.432 z"
           style="fill:#f19c2f;stroke-width:3.773"
           id="path18"
           inkscape:connector-curvature="0" />
        <path
           d="m 7.9834,72.379 -81.485,73.809 25.102,11.17 z"
           style="fill:#f8c457;stroke-width:3.773"
           id="path20"
           inkscape:connector-curvature="0" />
      </g>
    </g>
    <g
       transform="matrix(0.40564401,0,0,0.40564401,-10.347694,-104.75732)"
       style="stroke-width:1.15830004"
       id="g42">
      <g
         style="font-variant-ligatures:normal;font-variant-caps:normal;font-variant-numeric:normal;font-feature-settings:normal;stroke-width:1.15830004"
         aria-label="PROT"
         id="g34">
        <path
           d="m 79.454,279.77 c 0,-4.5085 -2.9528,-6.731 -7.3342,-6.731 h -9.0805 v 22.606 h 1.6828 v -9.1758 h 7.3978 c 4.3815,0 7.3342,-2.2225 7.3342,-6.6992 z m -1.6828,0 c 0,3.4925 -2.032,5.3658 -5.7785,5.3658 h -7.2708 v -10.763 h 7.2708 c 3.7465,0 5.7785,1.8732 5.7785,5.3975 z"
           style="stroke-width:1.15830004"
           id="path26"
           inkscape:connector-curvature="0" />
        <path
           d="m 99.488,279.23 c 0,-3.8418 -2.3495,-6.1912 -6.6992,-6.1912 h -9.7155 v 22.606 h 1.6828 v -10.128 h 7.8105 c 2.8575,0 4.9212,1.0478 4.9212,4.1592 v 3.683 c 0,0.98425 0.22225,1.6828 0.508,2.286 h 1.4922 c -0.1905,-0.53975 -0.3175,-1.3335 -0.3175,-2.286 v -3.7148 c 0,-2.5082 -1.3335,-4.1275 -3.6512,-4.7308 2.6035,-0.762 3.9688,-2.7622 3.9688,-5.6832 z m -1.6828,0.0635 c 0,2.8575 -1.4288,4.8895 -5.1118,4.8895 h -7.9375 v -9.8108 h 7.9375 c 3.683,0 5.1118,2.032 5.1118,4.9212 z"
           style="stroke-width:1.15830004"
           id="path28"
           inkscape:connector-curvature="0" />
        <path
           d="m 113.1,295.96 c 7.0485,0 10.446,-4.7308 10.446,-11.62 0,-6.8892 -3.3972,-11.62 -10.446,-11.62 -7.0168,0 -10.414,4.7308 -10.414,11.62 0,6.8892 3.3972,11.62 10.414,11.62 z m 0,-1.397 c -5.715,0 -8.7312,-3.7148 -8.7312,-10.224 0,-6.5092 3.0162,-10.224 8.7312,-10.224 5.7468,0 8.763,3.7148 8.763,10.224 0,6.5092 -3.0162,10.224 -8.763,10.224 z"
           style="stroke-width:1.15830004"
           id="path30"
           inkscape:connector-curvature="0" />
        <path
           d="m 134.98,295.64 v -21.209 h 7.3978 v -1.397 h -16.478 v 1.397 h 7.3978 v 21.209 z"
           style="stroke-width:1.15830004"
           id="path32"
           inkscape:connector-curvature="0" />
      </g>
      <g
         style="font-variant-ligatures:normal;font-variant-caps:normal;font-variant-numeric:normal;font-feature-settings:normal;stroke-width:1.15830004"
         aria-label="UT"
         id="g40">
        <path
           d="m 154.99,295.96 c 6.477,0 9.4298,-3.0162 9.4298,-8.8582 v -14.065 h -3.5242 v 13.748 c 0,4.6355 -1.8098,6.2865 -5.9055,6.2865 -4.0957,0 -5.9055,-1.651 -5.9055,-6.2865 v -13.748 h -3.5242 v 14.065 c 0,5.842 2.9528,8.8582 9.4298,8.8582 z"
           style="stroke-width:1.15830004"
           id="path36"
           inkscape:connector-curvature="0" />
        <path
           d="m 177.47,295.64 v -19.717 h 7.0485 v -2.8892 h -17.59 v 2.8892 h 7.0168 v 19.717 z"
           style="stroke-width:1.15830004"
           id="path38"
           inkscape:connector-curvature="0" />
      </g>
    </g>
  </g>
</svg>
