<?xml version="1.0" encoding="UTF-8"?>
<svg width="300" height="80" version="1.1" viewBox="0 0 79.375 21.167" xmlns="http://www.w3.org/2000/svg" xmlns:cc="http://creativecommons.org/ns#" xmlns:dc="http://purl.org/dc/elements/1.1/" xmlns:rdf="http://www.w3.org/1999/02/22-rdf-syntax-ns#" xmlns:xlink="http://www.w3.org/1999/xlink">
 <defs>
  <linearGradient id="copo">
   <stop style="stop-color:#d4aa00" offset="0"/>
   <stop style="stop-color:#b59000" offset=".478"/>
   <stop style="stop-color:#d4aa00" offset="1"/>
  </linearGradient>
  <linearGradient id="linearGradient10197" x1="64.669" x2="69.296" y1="6.1787" y2="6.1787" gradientUnits="userSpaceOnUse" xlink:href="#copo"/>
  <linearGradient id="linearGradient10199" x1="69.021" x2="74.389" y1="6.1147" y2="6.1147" gradientUnits="userSpaceOnUse" xlink:href="#copo"/>
 </defs>
 <metadata>
  <rdf:RDF>
   <cc:Work rdf:about="">
    <dc:format>image/svg+xml</dc:format>
    <dc:type rdf:resource="http://purl.org/dc/dcmitype/StillImage"/>
    <dc:title/>
   </cc:Work>
  </rdf:RDF>
 </metadata>
 <g transform="matrix(.95323 0 0 .95323 2.4336 -.44947)" style="fill:#878787;font-feature-settings:normal;font-variant-caps:normal;font-variant-ligatures:normal;font-variant-numeric:normal" aria-label="Feliz Ano Novo!">
  <path d="m60.326 13.329v0.78318h1.3716v0.55034h-1.3716v1.0795h-0.68581v-2.9634h2.2395v0.55034z" style="fill:#878787"/>
  <path d="m64.47 14.611q0 0.0127-0.0127 0.1778h-1.723q0.04657 0.21167 0.22014 0.33444t0.43181 0.12277q0.1778 0 0.31327-0.0508 0.1397-0.05503 0.25824-0.16934l0.35137 0.38101q-0.32174 0.36831-0.93982 0.36831-0.38524 0-0.68158-0.14817-0.29634-0.1524-0.45721-0.41911-0.16087-0.2667-0.16087-0.60538 0-0.33444 0.15664-0.60114 0.16087-0.27094 0.43604-0.41911 0.2794-0.1524 0.62231-0.1524 0.33444 0 0.60538 0.14394t0.42334 0.41487q0.15664 0.2667 0.15664 0.62231zm-1.1811-0.68158q-0.22437 0-0.37677 0.127t-0.18627 0.34714h1.1219q-0.03387-0.2159-0.18627-0.3429-0.1524-0.13124-0.37254-0.13124z" style="fill:#878787"/>
  <path d="m64.91 12.601h0.66041v3.1412h-0.66041z" style="fill:#878787"/>
  <path d="m66.183 13.464h0.66041v2.2776h-0.66041zm0.33021-0.3175q-0.18204 0-0.29634-0.10584t-0.1143-0.26247 0.1143-0.26247 0.29634-0.10584 0.29634 0.1016 0.1143 0.254q0 0.1651-0.1143 0.27517-0.1143 0.10584-0.29634 0.10584z" style="fill:#878787"/>
  <path d="m69.332 15.234v0.50801h-2.032v-0.39794l1.16-1.3716h-1.1303v-0.50801h1.9643v0.39794l-1.16 1.3716z" style="fill:#878787"/>
  <path d="m72.952 15.107h-1.3759l-0.26247 0.63501h-0.70274l1.3208-2.9634h0.67734l1.3251 2.9634h-0.71968zm-0.2159-0.52071-0.46991-1.1346-0.46991 1.1346z" style="fill:#878787"/>
  <path d="m75.58 13.43q0.42334 0 0.68158 0.254 0.26247 0.254 0.26247 0.75355v1.3039h-0.66041v-1.2023q0-0.27094-0.11854-0.40217-0.11854-0.13547-0.3429-0.13547-0.24977 0-0.39794 0.15664-0.14817 0.1524-0.14817 0.45721v1.1261h-0.66041v-2.2776h0.63078v0.2667q0.13124-0.14394 0.32597-0.22014 0.19474-0.08044 0.42757-0.08044z" style="fill:#878787"/>
  <path d="m78.231 15.776q-0.35984 0-0.64771-0.14817-0.28364-0.1524-0.44451-0.41911-0.16087-0.2667-0.16087-0.60538t0.16087-0.60538 0.44451-0.41487q0.28787-0.1524 0.64771-0.1524t0.64348 0.1524q0.28364 0.14817 0.44451 0.41487t0.16087 0.60538-0.16087 0.60538-0.44451 0.41911q-0.28364 0.14817-0.64348 0.14817zm0-0.54188q0.254 0 0.41487-0.16934 0.1651-0.17357 0.1651-0.46144t-0.1651-0.45721q-0.16087-0.17357-0.41487-0.17357t-0.41911 0.17357q-0.1651 0.16934-0.1651 0.45721t0.1651 0.46144q0.1651 0.16934 0.41911 0.16934z" style="fill:#878787"/>
  <path d="m66.227 16.88v2.9634h-0.56304l-1.4775-1.7992v1.7992h-0.67734v-2.9634h0.56728l1.4732 1.7992v-1.7992z" style="fill:#878787"/>
  <path d="m67.97 19.877q-0.35984 0-0.64771-0.14817-0.28364-0.1524-0.44451-0.41911t-0.16087-0.60538 0.16087-0.60538q0.16087-0.2667 0.44451-0.41487 0.28787-0.1524 0.64771-0.1524t0.64348 0.1524q0.28364 0.14817 0.44451 0.41487t0.16087 0.60538-0.16087 0.60538-0.44451 0.41911q-0.28364 0.14817-0.64348 0.14817zm0-0.54188q0.254 0 0.41487-0.16934 0.1651-0.17357 0.1651-0.46144t-0.1651-0.45721q-0.16087-0.17357-0.41487-0.17357t-0.41911 0.17357q-0.1651 0.16934-0.1651 0.45721t0.1651 0.46144q0.1651 0.16934 0.41911 0.16934z" style="fill:#878787"/>
  <path d="m71.85 17.566-0.96098 2.2776h-0.68158l-0.95675-2.2776h0.68158l0.63078 1.5494 0.65194-1.5494z" style="fill:#878787"/>
  <path d="m73.138 19.877q-0.35984 0-0.64771-0.14817-0.28364-0.1524-0.44451-0.41911-0.16087-0.2667-0.16087-0.60538t0.16087-0.60538 0.44451-0.41487q0.28787-0.1524 0.64771-0.1524t0.64348 0.1524q0.28364 0.14817 0.44451 0.41487t0.16087 0.60538-0.16087 0.60538-0.44451 0.41911q-0.28364 0.14817-0.64348 0.14817zm0-0.54188q0.254 0 0.41487-0.16934 0.1651-0.17357 0.1651-0.46144t-0.1651-0.45721q-0.16087-0.17357-0.41487-0.17357t-0.41911 0.17357q-0.1651 0.16934-0.1651 0.45721t0.1651 0.46144q0.1651 0.16934 0.41911 0.16934z" style="fill:#878787"/>
  <path d="m74.739 16.88h0.78741l-0.13124 1.9347h-0.52494zm0.39371 2.9972q-0.17357 0-0.2921-0.11007-0.1143-0.1143-0.1143-0.27517t0.1143-0.2667q0.1143-0.11007 0.2921-0.11007t0.2921 0.11007q0.1143 0.10584 0.1143 0.2667t-0.11854 0.27517q-0.1143 0.11007-0.28787 0.11007z" style="fill:#878787"/>
 </g>
 <g transform="matrix(.95323 0 0 .95323 2.462 .55938)">
  <path d="m71.263 1.3261-2.0157 0.51084c0.42526 1.8852 0.49072 3.4483 2.1453 4.9459 0.77097 1.4842 1.1329 3.1841 0.8286 3.3656-0.40387 0.24108-0.95009 0.4028-0.81885 0.58299l0.07543 0.15286c0.28921 0.04321 0.67729 0.01693 1.392-0.11887 0.76673-0.25645 0.98996-0.41119 1.294-0.58104l-0.03758-0.19495c-0.04986-0.25863-0.32452-0.14496-1.0206-0.092619-0.44779 0.033658-0.98725-1.875-1.0692-3.389 0.6064-1.9529-0.39002-3.7965-0.7734-5.1816z" style="fill:url(#linearGradient10199);stroke-width:.046307;stroke:#806600"/>
  <path d="m69.07 2.29-1.819-0.51399c-0.52202 1.6773-1.1809 2.9375-0.55907 4.8683-0.06764 1.5188-0.55525 3.0213-0.87738 3.026-0.42751 0.00623-0.93096-0.11472-0.90955 0.086768l-0.0101 0.1546c0.20803 0.16547 0.52547 0.32117 1.1498 0.53909 0.7201 0.14659 0.96616 0.12623 1.2827 0.13073l0.05901-0.17054c0.07828-0.22626-0.18958-0.26159-0.76129-0.53675-0.36782-0.17703 0.07498-1.9247 0.69864-3.1538 1.3649-1.2617 1.4184-3.1658 1.7462-4.4305z" style="fill:url(#linearGradient10197);stroke-width:.046307;stroke:#806600"/>
  <path d="m68.564 2.2399-0.80494 3.0762s-0.07143 0.26624-0.01774 0.28222c0.05752 0.017117 0.13897-0.26661 0.13897-0.26661l0.81394-3.0736z" style="fill:#fff;opacity:.86341;stroke-width:0"/>
  <path d="m70.752 1.5568 0.92518 3.3735s0.0784 0.29294 0.13837 0.27865c0.06421-0.015328-0.01426-0.33047-0.01426-0.33047l-0.91526-3.376z" style="fill:#fff;opacity:.81463;stroke-width:0"/>
 </g>
 <g transform="matrix(.94064 0 0 .94064 -1.8952 .62824)">
  <g transform="matrix(.080498 0 0 .080498 -1.4013 -1.5047)" style="stroke-width:3.773">
   <g transform="rotate(180,52.319,150.08)" style="stroke-width:3.773">
    <path d="m36.035 46.969-109.54 99.219 55.298 24.606z" style="fill:#1c1c1c;stroke-width:3.773"/>
    <path d="m14.272 66.682-87.774 79.506 45.296 20.156z" style="fill:#313131;stroke-width:3.773"/>
    <path d="m14.272 66.682-87.774 79.506 34.16 15.2 44.395-73.075z" style="fill:#3c3c3c;stroke-width:3.773"/>
    <path d="m-35.001 111.31-38.501 34.874 29.945 13.325z" style="fill:#494949;stroke-width:3.773"/>
   </g>
   <g transform="translate(131.51 .17526)" style="stroke-width:3.773">
    <path d="m36.035 46.969-109.54 99.219 55.298 24.606z" style="fill:#e85723;stroke-width:3.773"/>
    <path d="m11.15 69.51-84.652 76.677 55.298 24.606z" style="fill:#ec7227;stroke-width:3.773"/>
    <path d="m26.51 55.596-100.01 90.591 39.175 17.432z" style="fill:#f19c2f;stroke-width:3.773"/>
    <path d="m7.9834 72.379-81.485 73.809 25.102 11.17z" style="fill:#f8c457;stroke-width:3.773"/>
   </g>
  </g>
  <g transform="matrix(.34689 0 0 .34689 -5.3051 -88.051)" style="stroke-width:1.1583">
   <g style="font-feature-settings:normal;font-variant-caps:normal;font-variant-ligatures:normal;font-variant-numeric:normal;stroke-width:1.1583" aria-label="PROT">
    <path d="m79.454 279.77c0-4.5085-2.9528-6.731-7.3342-6.731h-9.0805v22.606h1.6828v-9.1758h7.3978c4.3815 0 7.3342-2.2225 7.3342-6.6992zm-1.6828 0c0 3.4925-2.032 5.3658-5.7785 5.3658h-7.2708v-10.763h7.2708c3.7465 0 5.7785 1.8732 5.7785 5.3975z" style="stroke-width:1.1583"/>
    <path d="m99.488 279.23c0-3.8418-2.3495-6.1912-6.6992-6.1912h-9.7155v22.606h1.6828v-10.128h7.8105c2.8575 0 4.9212 1.0478 4.9212 4.1592v3.683c0 0.98425 0.22225 1.6828 0.508 2.286h1.4922c-0.1905-0.53975-0.3175-1.3335-0.3175-2.286v-3.7148c0-2.5082-1.3335-4.1275-3.6512-4.7308 2.6035-0.762 3.9688-2.7622 3.9688-5.6832zm-1.6828 0.0635c0 2.8575-1.4288 4.8895-5.1118 4.8895h-7.9375v-9.8108h7.9375c3.683 0 5.1118 2.032 5.1118 4.9212z" style="stroke-width:1.1583"/>
    <path d="m113.1 295.96c7.0485 0 10.446-4.7308 10.446-11.62s-3.3972-11.62-10.446-11.62c-7.0168 0-10.414 4.7308-10.414 11.62s3.3972 11.62 10.414 11.62zm0-1.397c-5.715 0-8.7312-3.7148-8.7312-10.224s3.0162-10.224 8.7312-10.224c5.7468 0 8.763 3.7148 8.763 10.224s-3.0162 10.224-8.763 10.224z" style="stroke-width:1.1583"/>
    <path d="m134.98 295.64v-21.209h7.3978v-1.397h-16.478v1.397h7.3978v21.209z" style="stroke-width:1.1583"/>
   </g>
   <g style="font-feature-settings:normal;font-variant-caps:normal;font-variant-ligatures:normal;font-variant-numeric:normal;stroke-width:1.1583" aria-label="UT">
    <path d="m154.99 295.96c6.477 0 9.4298-3.0162 9.4298-8.8582v-14.065h-3.5242v13.748c0 4.6355-1.8098 6.2865-5.9055 6.2865s-5.9055-1.651-5.9055-6.2865v-13.748h-3.5242v14.065c0 5.842 2.9528 8.8582 9.4298 8.8582z" style="stroke-width:1.1583"/>
    <path d="m177.47 295.64v-19.717h7.0485v-2.8892h-17.59v2.8892h7.0168v19.717z" style="stroke-width:1.1583"/>
   </g>
  </g>
 </g>
 <path d="m56.304 2.6524v16.151" style="fill:none;stroke-width:.26459;stroke:#282828"/>
</svg>
