<?xml version="1.0" encoding="UTF-8"?>
<svg width="300" height="80" version="1.1" viewBox="0 0 79.375 21.167" xmlns="http://www.w3.org/2000/svg" xmlns:cc="http://creativecommons.org/ns#" xmlns:dc="http://purl.org/dc/elements/1.1/" xmlns:rdf="http://www.w3.org/1999/02/22-rdf-syntax-ns#" xmlns:xlink="http://www.w3.org/1999/xlink">
 <defs>
  <clipPath id="XMLID_15_">
   <use width="100%" height="100%" xlink:href="#XMLID_5_"/>
  </clipPath>
  <linearGradient id="XMLID_16_" x1="128.5" x2="53.124" y1="13.418" y2="42.95" gradientUnits="userSpaceOnUse">
   <stop style="stop-color:#fff" offset=".5"/>
   <stop style="stop-color:#A9BFD8" offset="1"/>
  </linearGradient>
  <radialGradient id="XMLID_17_" cx="49.75" cy="41.785" r="5.9251" gradientUnits="userSpaceOnUse">
   <stop style="stop-color:#fff" offset="0"/>
   <stop style="stop-color:#B9D1EC" offset="1"/>
  </radialGradient>
  <path id="XMLID_5_" d="m102.62 30.852c-2.556-11.223-8.88-22.56-18.374-29.276-7.006-4.951-20.233 3.117-27.865 5.666-9.548 2.367 3.258 9.774 3.501 13.9 0.25 4.254-2.173 6.054 2.587 7.43 4.687 1.354 9.473 2.37 14.312 3.005 8.451 1.108 17.49 1.322 25.839-0.725"/>
  <path id="XMLID_8_" d="m55.627 41.263c-0.646-7.921-12.396-6.82-11.754 1.046 0.649 7.92 12.396 6.819 11.754-1.046"/>
 </defs>
 <metadata>
  <rdf:RDF>
   <cc:Work rdf:about="">
    <dc:format>image/svg+xml</dc:format>
    <dc:type rdf:resource="http://purl.org/dc/dcmitype/StillImage"/>
    <dc:title/>
   </cc:Work>
  </rdf:RDF>
 </metadata>
 <g transform="matrix(.073599 0 0 .073599 62.34 3.6648)" style="stroke-width:.46998">
  <g transform="translate(318.82,178.04)" style="stroke-width:.46998">
   <path d="m-191.12 38.915c-1.6544-0.0061-5.3297 0.2139-5.3297 0.2139l-0.0174 3.2396-0.10284 2.3053-3.6013 3.7362c-3.9085 4.0543-5.6488 6.6808-4.9134 7.4161 0.62312 0.62312 2.5162-0.12621 5.6214-2.2247 1.4001-0.9462 3.3979-2.1859 3.3979-2.1859s0.31178 0.89876 0.43026 1.4361c0.49133 2.2284 1.3123 4.9052 1.7833 5.8162 0.33597 0.64968 0.7838 0.97462 1.3426 0.97462 2.6287-1.138 2.4547-8.2084 2.4547-8.2084s9.1648 4.3091 9.3885 2.3059c0-0.86746-4.0304-4.6051-6.7216-6.2332-3.6574-2.2127-3.861-2.473-3.867-4.9475-6e-3 -2.2818 0.13449-3.6442 0.13449-3.6442z" style="fill:#f79a16;stroke-width:.1658"/>
  </g>
  <g transform="matrix(-1,0,0,1,-116.83,178.04)" style="stroke-width:.46998">
   <path d="m-191.12 38.915c-1.6544-0.0061-5.3297 0.2139-5.3297 0.2139l-0.0174 3.2396-0.10284 2.3053-3.6013 3.7362c-3.9085 4.0543-5.6488 6.6808-4.9134 7.4161 0.62312 0.62312 2.5162-0.12621 5.6214-2.2247 1.4001-0.9462 3.3979-2.1859 3.3979-2.1859s0.31178 0.89876 0.43026 1.4361c0.49133 2.2284 1.3123 4.9052 1.7833 5.8162 0.33597 0.64968 0.7838 0.97462 1.3426 0.97462 2.6287-1.138 2.4547-8.2084 2.4547-8.2084s9.1648 4.3091 9.3885 2.3059c0-0.86746-4.0304-4.6051-6.7216-6.2332-3.6574-2.2127-3.861-2.473-3.867-4.9475-6e-3 -2.2818 0.13449-3.6442 0.13449-3.6442z" style="fill:#f79a16;stroke-width:.1658"/>
  </g>
 </g>
 <path d="m69.72 3.3482c-1.9402 1.16e-5 -3.7255 0.37523-4.6553 0.97835-0.38222-0.2695-1.0393-0.41978-1.4973-0.49458-1.1806-0.11932-1.0504 0.055851-0.94987 1.0667 0.0327 0.32871 0.40623 1.8632 0.41777 2.0999 0.01414 0.29057 0.0025 0.50759-0.03648 0.90991-0.03893 0.40232-0.09331 0.58257-0.24904 1.2574-0.33983 1.1648-0.42751 2.1798-0.52022 3.4322-0.0056 0.09394-0.05183 0.59386-0.0539 0.77522 1.6e-5 3.6006 3.4012 6.5195 7.5969 6.5195 2.0148-5e-6 3.9471-0.68688 5.3717-1.9096 1.4246-1.2227 2.2251-2.8809 2.2251-4.6099-0.0031-0.27352-0.02633-0.54659-0.06945-0.81761-0.0101-0.96297-0.26646-2.3604-0.50465-3.3898-0.15574-0.67485-0.21011-0.85508-0.24904-1.2574-0.03894-0.40232-0.05062-0.61932-0.03648-0.90991 0.01152-0.23673 0.38506-1.7712 0.41777-2.0999 0.10056-1.0108 0.23075-1.186-0.94987-1.0667-0.47881 0.078213-1.1753 0.23892-1.5477 0.53212-0.91041-0.6238-2.7272-1.0157-4.71-1.0159z" style="fill:#764c24;paint-order:normal;stroke-width:.03459"/>
 <g transform="matrix(.073599 0 0 .073599 62.378 3.3634)" style="fill:#c69c6c;stroke-width:.46998">
  <circle cx="58.725" cy="73.072" r="45.818" style="paint-order:normal;stroke-width:.46998"/>
  <circle cx="142.62" cy="73.072" r="45.818" style="paint-order:normal;stroke-width:.46998"/>
 </g>
 <g transform="matrix(.073599 0 0 .073599 36.597 7.353)" style="stroke-width:.46998">
  <path d="m449.88 73.961c-0.41244-2.7e-4 -0.82474 3e-3 -1.2371 0.0103l0.0372 0.0589c-0.25047 0.011-0.50104 0.0204-0.75138 0.0341-6.9884 0.38305-13.924 1.8407-20.443 4.3873-12.65 4.9414-23.717 14.178-30.151 26.137-4.4612 8.293-6.6543 17.748-6.628 27.164 6e-3 2.1239 0.12306 4.2516 0.46715 6.3474 0.52354 3.1888 1.5751 6.2888 3.0804 9.1483 1.7018 3.2327 3.9843 6.1584 6.706 8.5953l0.0103-0.016c7.8114 7.1604 27.663 11.903 49.84 11.907 23.492-3e-3 44.206-5.3128 50.992-13.072 2.1769-2.1808 4.0272-4.6878 5.4627-7.4145 1.5053-2.8595 2.5569-5.9594 3.0804-9.1483 0.3441-2.0958 0.4607-4.2236 0.46664-6.3474 0.0263-9.4167-2.1664-18.871-6.6275-27.164-6.4338-11.96-17.502-21.196-30.152-26.137-6.5192-2.5466-13.454-4.0043-20.443-4.3873-0.25033-0.0137-0.50091-0.0231-0.75137-0.0341l0.0372-0.0589c-0.70558-0.012-1.4116-0.0112-2.1172-2e-3 -0.29303-4e-3 -0.58596-9e-3 -0.87901-9e-3z" style="fill:#c69c6c;paint-order:normal;stroke-width:.46998"/>
  <g transform="translate(349.53,-50.748)" style="fill:none;stroke-linecap:round;stroke-width:.46998;stroke:#754922">
   <g style="stroke-width:1.4922">
    <path d="m77.462 169.13a10.096 7.4294 0 0 1-5.0478 6.4341 10.096 7.4294 0 0 1-10.096 0 10.096 7.4294 0 0 1-5.0478-6.4341" style="paint-order:normal;stroke-width:1.4922"/>
    <path d="m111.33 169.13a10.096 7.4294 0 0 1-5.0478 6.4341 10.096 7.4294 0 0 1-10.096 0 10.096 7.4294 0 0 1-5.0478-6.4341" style="paint-order:normal;stroke-width:1.4922"/>
    <path d="m145.19 169.13a10.096 7.4294 0 0 1-5.0478 6.4341 10.096 7.4294 0 0 1-10.096 0 10.096 7.4294 0 0 1-5.0478-6.4341" style="paint-order:normal;stroke-width:1.4922"/>
   </g>
   <g transform="translate(-.073612)" style="stroke-width:.99481">
    <path d="m95.527 190.43a10.096 7.4294 0 0 1-5.0478 6.4341 10.096 7.4294 0 0 1-10.096 0 10.096 7.4294 0 0 1-5.0478-6.4341" style="paint-order:normal;stroke-width:.99481"/>
    <path d="m127.28 190.43a10.096 7.4294 0 0 1-5.0478 6.4341 10.096 7.4294 0 0 1-10.096 0 10.096 7.4294 0 0 1-5.0478-6.4341" style="paint-order:normal;stroke-width:.99481"/>
   </g>
  </g>
 </g>
 <g transform="matrix(.073599 0 0 .073599 61.564 -.22323)" style="stroke-width:.46998">
  <circle cx="159.09" cy="120.58" r="33.851" style="fill:#fff;paint-order:normal;stroke-linecap:round;stroke-width:.6129;stroke:#e3e0e2"/>
  <g transform="translate(9.9229,45.103)" style="stroke-width:.46998">
   <circle cx="144.05" cy="75.482" r="19.604" style="paint-order:normal;stroke-width:.46998"/>
   <circle cx="134.15" cy="70.246" r="4.8278" style="fill:#fff;paint-order:normal;stroke-width:.46998"/>
  </g>
  <circle cx="64.374" cy="120.58" r="33.851" style="fill:#fff;paint-order:normal;stroke-linecap:round;stroke-width:.6129;stroke:#e3e0e2"/>
  <g transform="translate(-74.215,45.103)" style="stroke-width:.46998">
   <circle cx="144.05" cy="75.482" r="19.604" style="paint-order:normal;stroke-width:.46998"/>
   <circle cx="134.15" cy="70.246" r="4.8278" style="fill:#fff;paint-order:normal;stroke-width:.46998"/>
  </g>
  <path d="m111.12 130.83a12.058 8.7861 0 0 0-10.443 4.393l10.443 22.301 10.442-22.301a12.058 8.7861 0 0 0-10.442-4.393z" style="fill:#eaa91a;paint-order:normal;stroke-width:.46998"/>
 </g>
 <g transform="matrix(-.1298 -.07494 -.07494 .1298 86.459 6.634)" style="stroke-width:1.7653">
  <g style="stroke-width:1.7653">
   <use width="100%" height="100%" style="fill:#d41920;stroke-width:1.7653" xlink:href="#XMLID_5_"/>
   <clipPath>
    <use width="100%" height="100%" xlink:href="#XMLID_5_"/>
   </clipPath>
   <path d="m58.126 28.243c10.489-7.398 11.503-19.224 20.494-27.588-9.796 2.463-20.296 7.312-25.072 8.954-7.534 2.59 1.405 11.326 4.578 18.634" clip-path="url(#XMLID_15_)" style="fill:#b00d28;stroke-width:1.7653"/>
  </g>
  <path d="m55.608 34.625c7.484 4.725 17.228 5.97 25.87 6.153 3.291 0.07 22.982 0.264 22.982-5.163 0-5.408-0.389-8.392-5.694-8.041-6.664 0.439-13.325 0.567-19.995 0.215-6.333-0.334-12.656-0.88-18.95-1.639-4.094-0.493-5.286 5.124-4.213 8.475" style="fill:url(#XMLID_16_);stroke-width:1.7653"/>
  <path d="m80.261 0.058c-10.643 0.454-19.296 6.011-29.671 7.647-4.71 9.57-3.252 22.407-0.206 32.202 3.643-16.605 17.53-29.166 29.877-39.849" style="fill:#d41920;stroke-width:1.7653"/>
  <g style="stroke-width:1.7653">
   <use width="100%" height="100%" style="fill:url(#XMLID_17_);stroke-width:1.7653" xlink:href="#XMLID_8_"/>
   <clipPath id="XMLID_18_">
    <use width="100%" height="100%" xlink:href="#XMLID_8_"/>
   </clipPath>
  </g>
 </g>
 <g transform="rotate(-2.1706 -52.999 -17.714)">
  <rect x="62.522" y="15.932" width="12.163" height="7.4501" style="fill:#f00;paint-order:normal;stroke-linecap:square;stroke-width:.55563;stroke:#008033"/>
  <g transform="translate(.13254 -.049293)">
   <text x="68.43206" y="19.454338" style="fill:#ffffff;font-family:Malvie;font-feature-settings:normal;font-size:3.8457px;font-variant-caps:normal;font-variant-ligatures:normal;font-variant-numeric:normal;font-weight:bold;letter-spacing:0px;line-height:10.00000015%;stroke-width:.26459;text-align:center;text-anchor:middle;word-spacing:0px" xml:space="preserve"><tspan x="68.43206" y="19.454338" style="fill:#ffffff;font-family:'Zilla Slab';font-weight:bold;stroke-width:.26459">Feliz</tspan></text>
   <text x="68.450508" y="22.566744" style="fill:#ffffff;font-family:Arial;font-feature-settings:normal;font-size:3.8457px;font-variant-caps:normal;font-variant-ligatures:normal;font-variant-numeric:normal;font-weight:bold;letter-spacing:0px;line-height:10.00000015%;stroke-width:.26459;text-align:center;text-anchor:middle;word-spacing:0px" xml:space="preserve"><tspan x="68.450508" y="22.566744" style="fill:#ffffff;font-family:'Zilla Slab';font-weight:bold;stroke-width:.26459">Natal</tspan></text>
  </g>
 </g>
 <g transform="matrix(.93968 .015909 -.015909 .93968 3.2463 -.46963)" style="stroke-width:1.064">
  <path d="m79.012 16.457c0.2115-0.20004 0.39204-0.77046 0.48666-1.5376 0.11891-1.2641 0.05248-2.6237-0.21524-3.7264-0.08199-0.27758-0.34009-1.0886-0.5849-1.1744-0.44966-0.1484-1.5549 0.98989-2.3912 2.4628-0.37275 0.7639-0.84598 1.6375-0.85808 2.4009-0.0044 0.3556 0.06722 0.46244 0.29459 0.43934 0.27973-0.02843 0.42354-0.1116 0.78592-0.45455 0.12352-0.1169 0.22981-0.20731 0.23621-0.20091s0.0065 0.14516 2.05e-4 0.30836c-0.01862 0.48341 0.06299 0.9916 0.1843 1.1476 0.06606 0.08495 0.25957 0.09983 0.37451 0.0288 0.18124-0.11201 0.39874-0.4051 0.64601-0.87053 0.07577-0.14262 0.1194-0.13931 0.15941 0.01206 0.21714 0.82163 0.45551 1.2427 0.70343 1.2427 0.07447 0 0.1135-0.01717 0.17826-0.07842z" style="fill:#402009;stroke-width:.012984"/>
  <g transform="matrix(.068401 0 0 .068401 41.024 6.9538)" style="fill-rule:evenodd;fill:#65320e;stroke-width:.02121">
   <path d="m556.14 64.679 0.6298 9.2561 0.91298-0.37086 0.88083 7.331 0.1478-8.5389-1.0434 0.42382z" style="stroke-width:.02121"/>
   <path d="m559.23 81.626-0.52028 9.2629 0.95186-0.25505-0.033 7.3837 1.2032-8.455-1.0878 0.29147z" style="stroke-width:.02121"/>
   <path d="m550.19 83.116-2.0853 9.0401 0.98134-0.08975-1.2861 7.2709 2.6212-8.128-1.1215 0.10256z" style="stroke-width:.02121"/>
   <path d="m536.38 80.444-4.3821 8.1773 0.97056 0.17063-3.147 6.6795 4.6601-7.1567-1.1092-0.195z" style="stroke-width:.02121"/>
   <path d="m520.87 83.917-4.7426 7.9736 0.96198 0.21377-3.442 6.5324 4.9748-6.9416-1.0993-0.2443z" style="stroke-width:.02121"/>
   <path d="m513.06 101.35-4.2661 8.2384 0.97287 0.15689-3.0523 6.7233 4.5585-7.2218-1.1118-0.17931z" style="stroke-width:.02121"/>
   <path d="m529.89 96.058-4.5532 8.0833 0.96675 0.19101-3.2869 6.6118 4.8097-7.057-1.1048-0.2183z" style="stroke-width:.02121"/>
   <path d="m547.91 101.79-3.2075 8.7054 0.98483 0.0346-2.1918 7.051 3.6242-7.7331-1.1255-0.0395z" style="stroke-width:.02121"/>
   <path d="m560.38 99.704-1.9089 9.079 0.97941-0.10885-1.1442 7.2946 2.4624-8.1775-1.1193 0.12438z" style="stroke-width:.02121"/>
   <path d="m550.03 65.715-0.69821 9.2512 0.95659-0.23672-0.1749 7.3817 1.3654-8.4303-1.0932 0.27051z" style="stroke-width:.02121"/>
   <path d="m543 63.49-3.9765 8.3821 0.97775 0.1229-2.8162 6.8256 4.3041-7.3763-1.1174-0.14047z" style="stroke-width:.02121"/>
   <path d="m531.81 67.433-5.6954 7.3235 0.92802 0.33148-4.2259 6.0548 5.7977-6.2707-1.0605-0.37882z" style="stroke-width:.02121"/>
   <path d="m550.03 49.025 2.5801 8.9115 0.81347-0.5562 2.4168 6.977-1.668-8.3757-0.92964 0.63562z" style="stroke-width:.02121"/>
   <path d="m543.58 50.492-5.6093 7.3897 0.93184 0.3206-4.1548 6.1039 5.7239-6.3381-1.0649-0.36639z" style="stroke-width:.02121"/>
   <path d="m558.52 117.67-2.4666 8.9436 0.98426-0.0481-1.593 7.2098 2.9632-8.0096-1.1248 0.055z" style="stroke-width:.02121"/>
   <path d="m546.96 49.793-0.69821 9.2512 0.95659-0.23672-0.1749 7.3817 1.3654-8.4303-1.0932 0.27051z" style="stroke-width:.02121"/>
   <path d="m544.36 81.584-4.3821 8.1773 0.97056 0.17063-3.147 6.6795 4.6601-7.1567-1.1092-0.195z" style="stroke-width:.02121"/>
   <path d="m537.38 99.758-4.2244 8.2599 0.97366 0.15197-3.0183 6.7387 4.5219-7.2448-1.1127-0.17368z" style="stroke-width:.02121"/>
   <path d="m530.36 115.96-3.1994 8.7083 0.98488 0.0337-2.1852 7.053 3.617-7.7364-1.1255-0.0385z" style="stroke-width:.02121"/>
   <path d="m529.54 81.394-4.3821 8.1773 0.97056 0.17063-3.147 6.6795 4.6601-7.1567-1.1092-0.195z" style="stroke-width:.02121"/>
   <path d="m521.37 99.44-4.3821 8.1773 0.97056 0.17063-3.147 6.6795 4.6601-7.1567-1.1092-0.195z" style="stroke-width:.02121"/>
   <path d="m542.5 102.04-4.2244 8.2599 0.97366 0.15197-3.0183 6.7387 4.5219-7.2448-1.1127-0.17368z" style="stroke-width:.02121"/>
   <path d="m535.86 117.42-4.2244 8.2599 0.97366 0.15197-3.0183 6.7387 4.5219-7.2448-1.1127-0.17368z" style="stroke-width:.02121"/>
   <path d="m553.99 100.26-2.1576 9.0231 0.98203-0.0819-1.3442 7.2604 2.6861-8.1068-1.1223 0.0936z" style="stroke-width:.02121"/>
   <path d="m550.54 118.21-1.0663 9.216 0.96526-0.19839-0.46894 7.3688 1.7003-8.3692-1.1031 0.22676z" style="stroke-width:.02121"/>
   <path d="m555.49 81.432-1.6534 9.1289 0.97597-0.13628-0.93914 7.3238 2.232-8.2434-1.1153 0.15574z" style="stroke-width:.02121"/>
  </g>
 </g>
 <g transform="matrix(-.93649 -.079057 -.079057 .93649 136.98 7.4087)" style="stroke-width:1.064">
  <path d="m79.012 16.457c0.2115-0.20004 0.39204-0.77046 0.48666-1.5376 0.11891-1.2641 0.05248-2.6237-0.21524-3.7264-0.08199-0.27758-0.34009-1.0886-0.5849-1.1744-0.44966-0.1484-1.5549 0.98989-2.3912 2.4628-0.37275 0.7639-0.84598 1.6375-0.85808 2.4009-0.0044 0.3556 0.06722 0.46244 0.29459 0.43934 0.27973-0.02843 0.42354-0.1116 0.78592-0.45455 0.12352-0.1169 0.22981-0.20731 0.23621-0.20091s0.0065 0.14516 2.05e-4 0.30836c-0.01862 0.48341 0.06299 0.9916 0.1843 1.1476 0.06606 0.08495 0.25957 0.09983 0.37451 0.0288 0.18124-0.11201 0.39874-0.4051 0.64601-0.87053 0.07577-0.14262 0.1194-0.13931 0.15941 0.01206 0.21714 0.82163 0.45551 1.2427 0.70343 1.2427 0.07447 0 0.1135-0.01717 0.17826-0.07842z" style="fill:#402009;stroke-width:.012984"/>
  <g transform="matrix(.068401 0 0 .068401 41.024 6.9538)" style="fill-rule:evenodd;fill:#65320e;stroke-width:.02121">
   <path d="m556.14 64.679 0.6298 9.2561 0.91298-0.37086 0.88083 7.331 0.1478-8.5389-1.0434 0.42382z" style="stroke-width:.02121"/>
   <path d="m559.23 81.626-0.52028 9.2629 0.95186-0.25505-0.033 7.3837 1.2032-8.455-1.0878 0.29147z" style="stroke-width:.02121"/>
   <path d="m550.19 83.116-2.0853 9.0401 0.98134-0.08975-1.2861 7.2709 2.6212-8.128-1.1215 0.10256z" style="stroke-width:.02121"/>
   <path d="m536.38 80.444-4.3821 8.1773 0.97056 0.17063-3.147 6.6795 4.6601-7.1567-1.1092-0.195z" style="stroke-width:.02121"/>
   <path d="m520.87 83.917-4.7426 7.9736 0.96198 0.21377-3.442 6.5324 4.9748-6.9416-1.0993-0.2443z" style="stroke-width:.02121"/>
   <path d="m513.06 101.35-4.2661 8.2384 0.97287 0.15689-3.0523 6.7233 4.5585-7.2218-1.1118-0.17931z" style="stroke-width:.02121"/>
   <path d="m529.89 96.058-4.5532 8.0833 0.96675 0.19101-3.2869 6.6118 4.8097-7.057-1.1048-0.2183z" style="stroke-width:.02121"/>
   <path d="m547.91 101.79-3.2075 8.7054 0.98483 0.0346-2.1918 7.051 3.6242-7.7331-1.1255-0.0395z" style="stroke-width:.02121"/>
   <path d="m560.38 99.704-1.9089 9.079 0.97941-0.10885-1.1442 7.2946 2.4624-8.1775-1.1193 0.12438z" style="stroke-width:.02121"/>
   <path d="m550.03 65.715-0.69821 9.2512 0.95659-0.23672-0.1749 7.3817 1.3654-8.4303-1.0932 0.27051z" style="stroke-width:.02121"/>
   <path d="m543 63.49-3.9765 8.3821 0.97775 0.1229-2.8162 6.8256 4.3041-7.3763-1.1174-0.14047z" style="stroke-width:.02121"/>
   <path d="m531.81 67.433-5.6954 7.3235 0.92802 0.33148-4.2259 6.0548 5.7977-6.2707-1.0605-0.37882z" style="stroke-width:.02121"/>
   <path d="m550.03 49.025 2.5801 8.9115 0.81347-0.5562 2.4168 6.977-1.668-8.3757-0.92964 0.63562z" style="stroke-width:.02121"/>
   <path d="m543.58 50.492-5.6093 7.3897 0.93184 0.3206-4.1548 6.1039 5.7239-6.3381-1.0649-0.36639z" style="stroke-width:.02121"/>
   <path d="m558.52 117.67-2.4666 8.9436 0.98426-0.0481-1.593 7.2098 2.9632-8.0096-1.1248 0.055z" style="stroke-width:.02121"/>
   <path d="m546.96 49.793-0.69821 9.2512 0.95659-0.23672-0.1749 7.3817 1.3654-8.4303-1.0932 0.27051z" style="stroke-width:.02121"/>
   <path d="m544.36 81.584-4.3821 8.1773 0.97056 0.17063-3.147 6.6795 4.6601-7.1567-1.1092-0.195z" style="stroke-width:.02121"/>
   <path d="m537.38 99.758-4.2244 8.2599 0.97366 0.15197-3.0183 6.7387 4.5219-7.2448-1.1127-0.17368z" style="stroke-width:.02121"/>
   <path d="m530.36 115.96-3.1994 8.7083 0.98488 0.0337-2.1852 7.053 3.617-7.7364-1.1255-0.0385z" style="stroke-width:.02121"/>
   <path d="m529.54 81.394-4.3821 8.1773 0.97056 0.17063-3.147 6.6795 4.6601-7.1567-1.1092-0.195z" style="stroke-width:.02121"/>
   <path d="m521.37 99.44-4.3821 8.1773 0.97056 0.17063-3.147 6.6795 4.6601-7.1567-1.1092-0.195z" style="stroke-width:.02121"/>
   <path d="m542.5 102.04-4.2244 8.2599 0.97366 0.15197-3.0183 6.7387 4.5219-7.2448-1.1127-0.17368z" style="stroke-width:.02121"/>
   <path d="m535.86 117.42-4.2244 8.2599 0.97366 0.15197-3.0183 6.7387 4.5219-7.2448-1.1127-0.17368z" style="stroke-width:.02121"/>
   <path d="m553.99 100.26-2.1576 9.0231 0.98203-0.0819-1.3442 7.2604 2.6861-8.1068-1.1223 0.0936z" style="stroke-width:.02121"/>
   <path d="m550.54 118.21-1.0663 9.216 0.96526-0.19839-0.46894 7.3688 1.7003-8.3692-1.1031 0.22676z" style="stroke-width:.02121"/>
   <path d="m555.49 81.432-1.6534 9.1289 0.97597-0.13628-0.93914 7.3238 2.232-8.2434-1.1153 0.15574z" style="stroke-width:.02121"/>
  </g>
 </g>
 <g transform="matrix(.90502 0 0 .90502 -1.1314 1.0053)">
  <g transform="matrix(.080498 0 0 .080498 -1.4013 -1.5047)" style="stroke-width:3.773">
   <g transform="rotate(180,52.319,150.08)" style="stroke-width:3.773">
    <path d="m36.035 46.969-109.54 99.219 55.298 24.606z" style="fill:#1c1c1c;stroke-width:3.773"/>
    <path d="m14.272 66.682-87.774 79.506 45.296 20.156z" style="fill:#313131;stroke-width:3.773"/>
    <path d="m14.272 66.682-87.774 79.506 34.16 15.2 44.395-73.075z" style="fill:#3c3c3c;stroke-width:3.773"/>
    <path d="m-35.001 111.31-38.501 34.874 29.945 13.325z" style="fill:#494949;stroke-width:3.773"/>
   </g>
   <g transform="translate(131.51 .17526)" style="stroke-width:3.773">
    <path d="m36.035 46.969-109.54 99.219 55.298 24.606z" style="fill:#e85723;stroke-width:3.773"/>
    <path d="m11.15 69.51-84.652 76.677 55.298 24.606z" style="fill:#ec7227;stroke-width:3.773"/>
    <path d="m26.51 55.596-100.01 90.591 39.175 17.432z" style="fill:#f19c2f;stroke-width:3.773"/>
    <path d="m7.9834 72.379-81.485 73.809 25.102 11.17z" style="fill:#f8c457;stroke-width:3.773"/>
   </g>
  </g>
  <g transform="matrix(.34689 0 0 .34689 -5.3051 -88.051)" style="stroke-width:1.1583">
   <g style="font-feature-settings:normal;font-variant-caps:normal;font-variant-ligatures:normal;font-variant-numeric:normal;stroke-width:1.1583" aria-label="PROT">
    <path d="m79.454 279.77c0-4.5085-2.9528-6.731-7.3342-6.731h-9.0805v22.606h1.6828v-9.1758h7.3978c4.3815 0 7.3342-2.2225 7.3342-6.6992zm-1.6828 0c0 3.4925-2.032 5.3658-5.7785 5.3658h-7.2708v-10.763h7.2708c3.7465 0 5.7785 1.8732 5.7785 5.3975z" style="stroke-width:1.1583"/>
    <path d="m99.488 279.23c0-3.8418-2.3495-6.1912-6.6992-6.1912h-9.7155v22.606h1.6828v-10.128h7.8105c2.8575 0 4.9212 1.0478 4.9212 4.1592v3.683c0 0.98425 0.22225 1.6828 0.508 2.286h1.4922c-0.1905-0.53975-0.3175-1.3335-0.3175-2.286v-3.7148c0-2.5082-1.3335-4.1275-3.6512-4.7308 2.6035-0.762 3.9688-2.7622 3.9688-5.6832zm-1.6828 0.0635c0 2.8575-1.4288 4.8895-5.1118 4.8895h-7.9375v-9.8108h7.9375c3.683 0 5.1118 2.032 5.1118 4.9212z" style="stroke-width:1.1583"/>
    <path d="m113.1 295.96c7.0485 0 10.446-4.7308 10.446-11.62s-3.3972-11.62-10.446-11.62c-7.0168 0-10.414 4.7308-10.414 11.62s3.3972 11.62 10.414 11.62zm0-1.397c-5.715 0-8.7312-3.7148-8.7312-10.224s3.0162-10.224 8.7312-10.224c5.7468 0 8.763 3.7148 8.763 10.224s-3.0162 10.224-8.763 10.224z" style="stroke-width:1.1583"/>
    <path d="m134.98 295.64v-21.209h7.3978v-1.397h-16.478v1.397h7.3978v21.209z" style="stroke-width:1.1583"/>
   </g>
   <g style="font-feature-settings:normal;font-variant-caps:normal;font-variant-ligatures:normal;font-variant-numeric:normal;stroke-width:1.1583" aria-label="UT">
    <path d="m154.99 295.96c6.477 0 9.4298-3.0162 9.4298-8.8582v-14.065h-3.5242v13.748c0 4.6355-1.8098 6.2865-5.9055 6.2865s-5.9055-1.651-5.9055-6.2865v-13.748h-3.5242v14.065c0 5.842 2.9528 8.8582 9.4298 8.8582z" style="stroke-width:1.1583"/>
    <path d="m177.47 295.64v-19.717h7.0485v-2.8892h-17.59v2.8892h7.0168v19.717z" style="stroke-width:1.1583"/>
   </g>
  </g>
 </g>
 <path d="m56.673 2.508v16.151" style="fill:none;stroke-width:.26459;stroke:#282828"/>
</svg>
