<?xml version="1.0" encoding="UTF-8"?>
<svg width="65.372mm" height="21.167mm" version="1.1" viewBox="0 0 65.372 21.167" xmlns="http://www.w3.org/2000/svg" xmlns:cc="http://creativecommons.org/ns#" xmlns:dc="http://purl.org/dc/elements/1.1/" xmlns:rdf="http://www.w3.org/1999/02/22-rdf-syntax-ns#">
 <metadata>
  <rdf:RDF>
   <cc:Work rdf:about="">
    <dc:format>image/svg+xml</dc:format>
    <dc:type rdf:resource="http://purl.org/dc/dcmitype/StillImage"/>
    <dc:title/>
   </cc:Work>
  </rdf:RDF>
 </metadata>
 <g transform="scale(.26504)" style="stroke-width:3.773">
  <g transform="translate(12.33)">
   <g transform="matrix(.38523 0 0 .38523 -22.345 -17.918)" style="stroke-width:3.773">
    <g transform="rotate(180,52.319,150.08)" style="stroke-width:3.773">
     <path d="m36.035 46.969-109.54 99.219 55.298 24.606z" style="fill:#1c1c1c;stroke-width:3.773"/>
     <path d="m14.272 66.682-87.774 79.506 45.296 20.156z" style="fill:#313131;stroke-width:3.773"/>
     <path d="m14.272 66.682-87.774 79.506 34.16 15.2 44.395-73.075z" style="fill:#3c3c3c;stroke-width:3.773"/>
     <path d="m-35.001 111.31-38.501 34.874 29.945 13.325z" style="fill:#494949;stroke-width:3.773"/>
    </g>
    <g transform="translate(131.51 .17526)" style="stroke-width:3.773">
     <path d="m36.035 46.969-109.54 99.219 55.298 24.606z" style="fill:#e85723;stroke-width:3.773"/>
     <path d="m11.15 69.51-84.652 76.677 55.298 24.606z" style="fill:#ec7227;stroke-width:3.773"/>
     <path d="m26.51 55.596-100.01 90.591 39.175 17.432z" style="fill:#f19c2f;stroke-width:3.773"/>
     <path d="m7.9834 72.379-81.485 73.809 25.102 11.17z" style="fill:#f8c457;stroke-width:3.773"/>
    </g>
   </g>
   <g transform="matrix(1.3664 0 0 1.3664 -7.3381 -14.552)" style="stroke-width:2.7613">
    <g transform="matrix(.86937 0 0 .86937 6.2345 5.364)" style="stroke-width:3.1762">
     <g transform="translate(-12.058,-100.83)" style="stroke-width:3.1762">
      <g style="font-feature-settings:normal;font-variant-caps:normal;font-variant-ligatures:normal;font-variant-numeric:normal;stroke-width:1.295" aria-label="Soluções em energia">
       <path d="m76.463 159.03c2.1223 0 3.1157-0.93698 3.1157-2.4723 0-1.2192-0.80151-1.8175-2.3481-2.0433l-1.2192-0.18062c-1.1853-0.18062-1.4901-0.55316-1.4901-1.2192 0-0.98214 0.59831-1.603 1.9191-1.603 1.3547 0 1.9078 0.58703 2.0433 1.7724h0.89182c0-1.5692-0.93698-2.5174-2.9125-2.5174-1.9756 0-2.9125 0.98213-2.9125 2.4045 0 1.1289 0.55316 1.7272 2.1788 1.9756l1.2192 0.18062c1.3208 0.19191 1.6595 0.65476 1.6595 1.2756 0 1.0386-0.59831 1.682-2.1223 1.682-1.5579 0-2.0772-0.62089-2.2239-1.8852h-0.9144c0 1.7159 0.99342 2.6303 3.1157 2.6303z" style="stroke-width:1.295"/>
       <path d="m83.603 159.03c1.8062 0 2.7996-1.1515 2.7996-3.0254 0-1.8627-0.99342-3.0254-2.7996-3.0254-1.7949 0-2.7884 1.1628-2.7884 3.0254 0 1.874 0.99342 3.0254 2.7884 3.0254zm0-0.72249c-1.174 0-1.8514-0.77893-1.8514-2.3029s0.67733-2.3029 1.8514-2.3029c1.1853 0 1.8627 0.77894 1.8627 2.3029s-0.67733 2.3029-1.8627 2.3029z" style="stroke-width:1.295"/>
       <path d="m88.806 158.92v-8.0377h-0.93698v8.0377z" style="stroke-width:1.295"/>
       <path d="m92.46 159.03c0.99342 0 1.5917-0.46284 1.9191-1.1853v1.0724h0.89182v-5.8251h-0.93698v3.2512c0 1.174-0.63218 1.9304-1.603 1.9304-0.93698 0-1.2869-0.508-1.2869-1.4788v-3.7028h-0.93698v3.8495c0 1.4111 0.62089 2.0884 1.953 2.0884z" style="stroke-width:1.295"/>
       <path d="m100.47 160.09c0-0.46285-0.42898-0.64347-1.2192-0.64347l0.33867-0.41769c1.6256-0.0564 2.4045-1.1289 2.4045-2.2352h-0.84666c-0.13547 0.98213-0.72249 1.5127-1.6933 1.5127-1.1063 0-1.7836-0.77893-1.7836-2.3029s0.67733-2.3029 1.7836-2.3029c1.1063 0 1.5804 0.69991 1.6933 1.4676h0.84666c0-1.0273-0.75635-2.19-2.54-2.19-1.7272 0-2.7206 1.1628-2.7206 3.0254 0 1.7836 0.89182 2.9012 2.461 3.0141l-0.36124 0.42898v0.27093h0.31609c0.47413 0 0.65476 0.0903 0.65476 0.33867 0 0.25965-0.18062 0.34996-0.65476 0.34996h-0.7112v0.39511l0.72249 0.0677c0.90311 0 1.3095-0.25964 1.3095-0.77893z" style="stroke-width:1.295"/>
       <path d="m105.91 159.03c1.8062 0 2.7996-1.1515 2.7996-3.0254 0-1.8627-0.99343-3.0254-2.7996-3.0254-1.7949 0-2.7884 1.1628-2.7884 3.0254 0 1.874 0.99342 3.0254 2.7884 3.0254zm0-0.72249c-1.174 0-1.8514-0.77893-1.8514-2.3029s0.67733-2.3029 1.8514-2.3029c1.1853 0 1.8627 0.77894 1.8627 2.3029s-0.67734 2.3029-1.8627 2.3029zm0.68862-6.2428c0.58703 0 0.90311-0.41769 0.90311-1.2982h-0.508c0 0.42898-0.15804 0.68862-0.42897 0.68862-0.39512 0-0.69992-0.68862-1.3321-0.68862-0.58703 0-0.9144 0.41769-0.9144 1.2982h0.51928c0-0.42898 0.15805-0.69991 0.42898-0.69991 0.39511 0 0.68863 0.69991 1.3321 0.69991z" style="stroke-width:1.295"/>
       <path d="m112.74 159.03c1.4676 0 2.2691-0.72249 2.54-1.8852h-0.83538c-0.2032 0.73377-0.76765 1.2305-1.7046 1.2305-1.0837 0-1.8288-0.64347-1.8514-2.2239h4.493c0.0226-0.0903 0.0226-0.19191 0.0226-0.28222 0-1.6256-0.92569-2.89-2.7319-2.89-1.7949 0-2.7206 1.2305-2.7206 3.0254 0 1.874 0.99342 3.0254 2.7884 3.0254zm-0.0677-5.3961c1.0047 0 1.6708 0.62089 1.7949 1.8852h-3.5786c0.12417-1.2644 0.77893-1.8852 1.7836-1.8852z" style="stroke-width:1.295"/>
       <path d="m119.05 159.03c1.7836 0 2.4158-0.80151 2.4158-1.7724 0-1.016-0.67733-1.4337-1.7611-1.5917l-1.1515-0.16933c-0.49671-0.0677-0.8128-0.24836-0.8128-0.8128 0-0.66605 0.34995-1.0612 1.3095-1.0612 1.1289 0 1.3095 0.55315 1.366 1.1515h0.89182c0-0.99343-0.55316-1.7949-2.2578-1.7949-1.6933 0-2.2465 0.80151-2.2465 1.7724 0 0.93698 0.53058 1.3434 1.6256 1.5014l1.1402 0.16934c0.59831 0.0903 0.95956 0.34995 0.95956 0.88053 0 0.56445-0.3048 1.0837-1.4676 1.0837-1.174 0-1.4676-0.51928-1.524-1.2418h-0.89183c0 1.0837 0.63218 1.8852 2.4045 1.8852z" style="stroke-width:1.295"/>
       <path d="m128.81 159.03c1.4676 0 2.2691-0.72249 2.54-1.8852h-0.83538c-0.2032 0.73377-0.76765 1.2305-1.7046 1.2305-1.0837 0-1.8288-0.64347-1.8514-2.2239h4.493c0.0226-0.0903 0.0226-0.19191 0.0226-0.28222 0-1.6256-0.92569-2.89-2.7319-2.89-1.7949 0-2.7206 1.2305-2.7206 3.0254 0 1.874 0.99342 3.0254 2.7884 3.0254zm-0.0677-5.3961c1.0047 0 1.6708 0.62089 1.7949 1.8852h-3.5786c0.12417-1.2644 0.77893-1.8852 1.7836-1.8852z" style="stroke-width:1.295"/>
       <path d="m140.53 158.92v-3.8495c0-1.4111-0.55316-2.0884-1.7159-2.0884-0.80152 0-1.4337 0.42898-1.7272 1.2531-0.19191-0.83538-0.7112-1.2531-1.603-1.2531-0.80151 0-1.3772 0.46285-1.6482 1.1853v-1.0724h-0.89182v5.8251h0.90311v-3.2738c0-1.174 0.57573-1.9078 1.366-1.9078 0.75635 0 1.0612 0.48542 1.0612 1.4563v3.7253h0.89183v-3.2738c0-1.174 0.59831-1.9078 1.3885-1.9078 0.77894 0 1.0724 0.48542 1.0724 1.4563v3.7253z" style="stroke-width:1.295"/>
       <path d="m148.11 159.03c1.4676 0 2.2691-0.72249 2.54-1.8852h-0.83538c-0.2032 0.73377-0.76765 1.2305-1.7046 1.2305-1.0837 0-1.8288-0.64347-1.8514-2.2239h4.493c0.0226-0.0903 0.0226-0.19191 0.0226-0.28222 0-1.6256-0.92569-2.89-2.7319-2.89-1.7949 0-2.7206 1.2305-2.7206 3.0254 0 1.874 0.99343 3.0254 2.7884 3.0254zm-0.0677-5.3961c1.0047 0 1.6708 0.62089 1.7949 1.8852h-3.5786c0.12418-1.2644 0.77894-1.8852 1.7836-1.8852z" style="stroke-width:1.295"/>
       <path d="m157 158.92v-3.8495c0-1.4111-0.63218-2.0884-1.9643-2.0884-0.98213 0-1.5804 0.46285-1.9078 1.1853v-1.0724h-0.89182v5.8251h0.93697v-3.2512c0-1.174 0.63218-1.9304 1.603-1.9304 0.93698 0 1.2869 0.508 1.2869 1.4788v3.7028z" style="stroke-width:1.295"/>
       <path d="m161.25 159.03c1.4676 0 2.2691-0.72249 2.54-1.8852h-0.83538c-0.2032 0.73377-0.76764 1.2305-1.7046 1.2305-1.0837 0-1.8288-0.64347-1.8514-2.2239h4.493c0.0226-0.0903 0.0226-0.19191 0.0226-0.28222 0-1.6256-0.92569-2.89-2.7319-2.89-1.7949 0-2.7206 1.2305-2.7206 3.0254 0 1.874 0.99342 3.0254 2.7884 3.0254zm-0.0677-5.3961c1.0047 0 1.6708 0.62089 1.7949 1.8852h-3.5786c0.12418-1.2644 0.77893-1.8852 1.7836-1.8852z" style="stroke-width:1.295"/>
       <path d="m166.32 158.92v-2.8109c0-1.4337 0.64347-2.2239 1.6369-2.2239l0.56445 0.0226v-0.8128c-0.16934-0.0339-0.37254-0.0564-0.53058-0.0564-0.86925 0-1.3998 0.41769-1.7159 1.4337v-1.3772h-0.89182v5.8251z" style="stroke-width:1.295"/>
       <path d="m172.16 158.69c0.99342 0 1.682-0.4064 2.0094-1.2192v1.2644c0 1.2869-0.63218 1.8627-1.7046 1.8627-0.98214 0-1.5804-0.48542-1.6595-1.3772h-0.85796c0 1.1966 0.83538 2.0207 2.4723 2.0207 1.7272 0 2.6868-0.9144 2.6868-2.7093v-5.4412h-0.89183v1.1628c-0.32737-0.82409-1.016-1.2756-2.0546-1.2756-1.5692 0-2.5287 1.1628-2.5287 2.8561s0.95956 2.8561 2.5287 2.8561zm0.2032-0.67733c-1.0612 0-1.7949-0.75636-1.7949-2.1788s0.73378-2.1788 1.7949-2.1788c1.0724 0 1.8062 0.75635 1.8062 2.1788s-0.73378 2.1788-1.8062 2.1788z" style="stroke-width:1.295"/>
       <path d="m177.73 158.92v-5.8251h-0.93698v5.8251zm-0.47413-6.9878c0.37253 0 0.58702-0.22577 0.58702-0.51929 0-0.29351-0.21449-0.51929-0.58702-0.51929-0.37254 0-0.57574 0.22578-0.57574 0.51929 0 0.29352 0.2032 0.51929 0.57574 0.51929z" style="stroke-width:1.295"/>
       <path d="m181.27 159.03c1.0273 0 1.7159-0.4064 2.032-1.2192 0 0.62089 0.0677 0.85796 0.24836 1.1063h0.82409c-0.11289-0.19191-0.18063-0.69991-0.18063-1.4901v-2.5626c0-1.1515-0.7112-1.8852-2.3368-1.8852s-2.3368 0.73378-2.3368 1.8852h0.90311c0.0677-0.82409 0.54187-1.2079 1.445-1.2079 0.97085 0 1.3885 0.46284 1.3885 1.2079 0 0.42898-0.22578 0.59831-1.016 0.66604l-1.0724 0.0903c-1.4224 0.12418-1.9643 0.79023-1.9643 1.6482 0 1.0837 0.74507 1.7611 2.0659 1.7611zm0.24836-0.65475c-0.97085 0-1.3772-0.49672-1.3772-1.1628 0-0.54187 0.37253-0.93698 1.2982-1.0047l0.80152-0.0677c0.51928-0.0452 0.88053-0.15804 1.016-0.33866v0.57573c0 1.0837-0.58703 1.9981-1.7385 1.9981z" style="stroke-width:1.295"/>
      </g>
      <g transform="translate(5.0826,-150.92)" style="stroke-width:1.1583">
       <g style="font-feature-settings:normal;font-variant-caps:normal;font-variant-ligatures:normal;font-variant-numeric:normal;stroke-width:1.1583" aria-label="PROT">
        <path d="m79.454 279.77c0-4.5085-2.9528-6.731-7.3342-6.731h-9.0805v22.606h1.6828v-9.1758h7.3978c4.3815 0 7.3342-2.2225 7.3342-6.6992zm-1.6828 0c0 3.4925-2.032 5.3658-5.7785 5.3658h-7.2708v-10.763h7.2708c3.7465 0 5.7785 1.8732 5.7785 5.3975z" style="stroke-width:1.1583"/>
        <path d="m99.488 279.23c0-3.8418-2.3495-6.1912-6.6992-6.1912h-9.7155v22.606h1.6828v-10.128h7.8105c2.8575 0 4.9212 1.0478 4.9212 4.1592v3.683c0 0.98425 0.22225 1.6828 0.508 2.286h1.4922c-0.1905-0.53975-0.3175-1.3335-0.3175-2.286v-3.7148c0-2.5082-1.3335-4.1275-3.6512-4.7308 2.6035-0.762 3.9688-2.7622 3.9688-5.6832zm-1.6828 0.0635c0 2.8575-1.4288 4.8895-5.1118 4.8895h-7.9375v-9.8108h7.9375c3.683 0 5.1118 2.032 5.1118 4.9212z" style="stroke-width:1.1583"/>
        <path d="m113.1 295.96c7.0485 0 10.446-4.7308 10.446-11.62s-3.3972-11.62-10.446-11.62c-7.0168 0-10.414 4.7308-10.414 11.62s3.3972 11.62 10.414 11.62zm0-1.397c-5.715 0-8.7312-3.7148-8.7312-10.224s3.0162-10.224 8.7312-10.224c5.7468 0 8.763 3.7148 8.763 10.224s-3.0162 10.224-8.763 10.224z" style="stroke-width:1.1583"/>
        <path d="m134.98 295.64v-21.209h7.3978v-1.397h-16.478v1.397h7.3978v21.209z" style="stroke-width:1.1583"/>
       </g>
       <g style="font-feature-settings:normal;font-variant-caps:normal;font-variant-ligatures:normal;font-variant-numeric:normal;stroke-width:1.1583" aria-label="UT">
        <path d="m154.99 295.96c6.477 0 9.4298-3.0162 9.4298-8.8582v-14.065h-3.5242v13.748c0 4.6355-1.8098 6.2865-5.9055 6.2865s-5.9055-1.651-5.9055-6.2865v-13.748h-3.5242v14.065c0 5.842 2.9528 8.8582 9.4298 8.8582z" style="stroke-width:1.1583"/>
        <path d="m177.47 295.64v-19.717h7.0485v-2.8892h-17.59v2.8892h7.0168v19.717z" style="stroke-width:1.1583"/>
       </g>
      </g>
     </g>
     <g transform="translate(-12.059,-100.57)" style="shape-rendering:auto;stroke-width:2.5652">
      <path d="m196.44 149.32a1.5 1.5 0 0 0-1.4996 1.5002 1.5 1.5 0 0 0 1.1033 1.4449v16.253h-136.26v0.79272h137.05v-17.044a1.5 1.5 0 0 0 1.1033-1.4464 1.5 1.5 0 0 0-1.5002-1.5002z" dominant-baseline="auto" style="color-rendering:auto;color:#000000;dominant-baseline:auto;font-feature-settings:normal;font-variant-alternates:normal;font-variant-caps:normal;font-variant-ligatures:normal;font-variant-numeric:normal;font-variant-position:normal;image-rendering:auto;isolation:auto;mix-blend-mode:normal;shape-padding:0;solid-color:#000000;stroke-width:3.1762;text-decoration-color:#000000;text-decoration-line:none;text-decoration-style:solid;text-indent:0;text-orientation:mixed;text-transform:none;white-space:normal"/>
      <path d="m196.44 111.22c-0.68564 0-1.2675 0.46911-1.4438 1.1012h-135.21v0.7953h135.21c0.17567 0.63315 0.75797 1.1033 1.4444 1.1033 0.82372 0 1.5002-0.67645 1.5002-1.5002 0-0.82373-0.67644-1.4996-1.5002-1.4996zm0 0.79272c0.39475 0 0.70745 0.31217 0.70745 0.70693 0 0.39475-0.3127 0.70539-0.70745 0.70539-0.39476 0-0.70695-0.31064-0.70694-0.70539 0-0.39476 0.31218-0.70693 0.70694-0.70693z" dominant-baseline="auto" style="color-rendering:auto;color:#000000;dominant-baseline:auto;font-feature-settings:normal;font-variant-alternates:normal;font-variant-caps:normal;font-variant-ligatures:normal;font-variant-numeric:normal;font-variant-position:normal;image-rendering:auto;isolation:auto;mix-blend-mode:normal;shape-padding:0;solid-color:#000000;stroke-width:3.1762;text-decoration-color:#000000;text-decoration-line:none;text-decoration-style:solid;text-indent:0;text-orientation:mixed;text-transform:none;white-space:normal"/>
     </g>
    </g>
   </g>
  </g>
 </g>
</svg>
